<svg xmlns="http://www.w3.org/2000/svg" viewBox="0 0 24 24" id="Typing--Streamline-Ultimate" height="24" width="24">
  <desc>
    Typing Streamline Icon: https://streamlinehq.com
  </desc>
  <path d="M1.5 5.999h21s1 0 1 1v10s0 1 -1 1h-21s-1 0 -1 -1v-10s0 -1 1 -1" fill="#ffffff" stroke-width="1"></path>
  <path d="M23.5 10V7a1 1 0 0 0 -1 -1h-21a1 1 0 0 0 -1 1v3Z" fill="#dff9ff" stroke-width="1"></path>
  <path d="M1.5 5.999h21s1 0 1 1v10s0 1 -1 1h-21s-1 0 -1 -1v-10s0 -1 1 -1" fill="none" stroke="#00303e" stroke-linecap="round" stroke-linejoin="round" stroke-width="1"></path>
  <path d="m4 8.999 2 0" fill="none" stroke="#00303e" stroke-linecap="round" stroke-linejoin="round" stroke-width="1"></path>
  <path d="m4 14.999 2 0" fill="none" stroke="#00303e" stroke-linecap="round" stroke-linejoin="round" stroke-width="1"></path>
  <path d="m5 14.999 0 -6" fill="none" stroke="#00303e" stroke-linecap="round" stroke-linejoin="round" stroke-width="1"></path>
</svg>