<svg xmlns="http://www.w3.org/2000/svg" viewBox="0 0 24 24" id="Scale-Horizontal--Streamline-Ultimate" height="24" width="24">
  <desc>
    Scale Horizontal Streamline Icon: https://streamlinehq.com
  </desc>
  <path d="M3.5 8.5a8.5 8.5 0 1 0 17 0 8.5 8.5 0 1 0 -17 0" fill="#dff9ff" stroke-width="1"></path>
  <path d="M4.5 3.5v-2a1 1 0 0 1 1 -1h12a1 1 0 0 1 1 1v2" fill="none" stroke="#00303e" stroke-linecap="round" stroke-linejoin="round" stroke-width="1"></path>
  <path d="m11.5 0.498 0 16" fill="none" stroke="#00303e" stroke-linecap="round" stroke-linejoin="round" stroke-width="1"></path>
  <path d="m8 16.498 7 0" fill="none" stroke="#00303e" stroke-linecap="round" stroke-linejoin="round" stroke-width="1"></path>
  <path d="m0.5 20.498 22 0" fill="none" stroke="#00303e" stroke-linecap="round" stroke-linejoin="round" stroke-width="1"></path>
  <path d="m4.5 23.498 -4 -3.015 4 -2.985" fill="none" stroke="#00303e" stroke-linecap="round" stroke-linejoin="round" stroke-width="1"></path>
  <path d="m18.5 23.498 4 -3.015 -4 -2.985" fill="none" stroke="#00303e" stroke-linecap="round" stroke-linejoin="round" stroke-width="1"></path>
</svg>