<svg xmlns="http://www.w3.org/2000/svg" fill="#000000" class="bi bi-code-square" viewBox="0 0 16 16" id="Code-Square--Streamline-Bootstrap" height="16" width="16">
  <desc>
    Code Square Streamline Icon: https://streamlinehq.com
  </desc>
  <path d="M14 1a1 1 0 0 1 1 1v12a1 1 0 0 1 -1 1H2a1 1 0 0 1 -1 -1V2a1 1 0 0 1 1 -1zM2 0a2 2 0 0 0 -2 2v12a2 2 0 0 0 2 2h12a2 2 0 0 0 2 -2V2a2 2 0 0 0 -2 -2z" stroke-width="1"></path>
  <path d="M6.854 4.646a0.5 0.5 0 0 1 0 0.708L4.207 8l2.647 2.646a0.5 0.5 0 0 1 -0.708 0.708l-3 -3a0.5 0.5 0 0 1 0 -0.708l3 -3a0.5 0.5 0 0 1 0.708 0m2.292 0a0.5 0.5 0 0 0 0 0.708L11.793 8l-2.647 2.646a0.5 0.5 0 0 0 0.708 0.708l3 -3a0.5 0.5 0 0 0 0 -0.708l-3 -3a0.5 0.5 0 0 0 -0.708 0" stroke-width="1"></path>
</svg>